<svg
        width="512"
        height="512"
        viewBox="0 0 512 512"
        fill="none"
        xmlns="http://www.w3.org/2000/svg"
>
    <path
            d="M255.498 31.0034C131.513 31.0034 31 131.515 31 255.502C31 379.492 131.513 480 255.498 480C379.497 480 480 379.495 480 255.502C480 131.522 379.497 31.0135 255.495 31.0135L255.498 31V31.0034ZM358.453 354.798C354.432 361.391 345.801 363.486 339.204 359.435C286.496 327.237 220.139 319.947 141.993 337.801C134.463 339.516 126.957 334.798 125.24 327.264C123.516 319.731 128.217 312.225 135.767 310.511C221.284 290.972 294.639 299.384 353.816 335.549C360.413 339.596 362.504 348.2 358.453 354.798ZM385.932 293.67C380.864 301.903 370.088 304.503 361.858 299.438C301.512 262.345 209.528 251.602 138.151 273.272C128.893 276.067 119.118 270.851 116.309 261.61C113.521 252.353 118.74 242.597 127.981 239.782C209.512 215.044 310.87 227.026 380.17 269.612C388.4 274.68 391 285.456 385.935 293.676V293.673L385.932 293.67ZM388.293 230.016C315.935 187.039 196.56 183.089 127.479 204.055C116.387 207.42 104.654 201.159 101.293 190.063C97.9326 178.964 104.189 167.241 115.289 163.87C194.59 139.796 326.418 144.446 409.723 193.902C419.722 199.826 422.995 212.71 417.068 222.675C411.168 232.653 398.247 235.943 388.303 230.016H388.293V230.016Z"
            fill="#1ED760"
    />
</svg>